<?xml version="1.0" encoding="UTF-8" standalone="no"?>
<!DOCTYPE svg PUBLIC "-//W3C//DTD SVG 1.1//EN" "http://www.w3.org/Graphics/SVG/1.1/DTD/svg11.dtd">
<!-- Generated by Microsoft Visio, SVG Export ConcurrentForTimeGraph.svg Page-6 -->
<svg xmlns="http://www.w3.org/2000/svg" xmlns:xlink="http://www.w3.org/1999/xlink" xmlns:ev="http://www.w3.org/2001/xml-events"
		xmlns:v="http://schemas.microsoft.com/visio/2003/SVGExtensions/" width="8.66142in" height="5.90551in"
		viewBox="0 0 623.622 425.197" xml:space="preserve" color-interpolation-filters="sRGB" class="st7">
	<v:documentProperties v:langID="8192" v:metric="true" v:viewMarkup="false">
		<v:userDefs>
			<v:ud v:nameU="msvNoAutoConnect" v:val="VT0(1):26"/>
		</v:userDefs>
	</v:documentProperties>

	<style type="text/css">
	<![CDATA[
		.st1 {fill:none;stroke:none;stroke-linecap:round;stroke-linejoin:round;stroke-width:0.75}
		.st2 {fill:#000000;font-family:Cambria;font-size:1.33333em}
		.st3 {fill:#000000}
		.st4 {stroke:#000000;stroke-linecap:round;stroke-linejoin:round;stroke-width:0.239976}
		.st5 {fill:#000000;font-family:Cambria;font-size:1.00001em}
		.st6 {stroke:#000000;stroke-linecap:round;stroke-linejoin:round;stroke-width:0.75}
		.st7 {fill:none;fill-rule:evenodd;font-size:12px;overflow:visible;stroke-linecap:square;stroke-miterlimit:3}
	]]>
	</style>

	<g v:mID="8" v:index="6" v:groupContext="foregroundPage">
		<title>Page-6</title>
		<v:pageProperties v:drawingScale="0.0393701" v:pageScale="0.0393701" v:drawingUnits="24" v:shadowOffsetX="8.50394"
				v:shadowOffsetY="-8.50394"/>
		<v:layer v:name="Annotations" v:index="0"/>
		<g id="shape70-1" v:mID="70" v:groupContext="shape" v:layerMember="0" transform="translate(212.598,-386.504)">
			<title>12pt. text.70</title>
			<desc>ConcurrentForTimeGraph</desc>
			<v:userDefs>
				<v:ud v:nameU="AntiScale" v:val="VT0(1):26"/>
				<v:ud v:nameU="AutoWidth" v:val="VT0(0.39370078740157):24"/>
				<v:ud v:nameU="WidthIncrement" v:val="VT0(0.098425196850394):24"/>
				<v:ud v:nameU="visVersion" v:val="VT0(15):26"/>
				<v:ud v:nameU="AutoWidth" v:prompt="" v:val="VT0(2.5590551181102):24"/>
			</v:userDefs>
			<v:textBlock v:margins="rect(0,0,0,0)" v:tabSpace="42.5197"/>
			<v:textRect cx="99.2126" cy="418.11" width="198.43" height="14.1732"/>
			<rect x="0" y="411.024" width="198.425" height="14.1732" class="st1"/>
			<text x="10.03" y="422.91" class="st2" v:langID="1033"><v:paragraph v:horizAlign="1"/><v:tabList/>ConcurrentForTimeGraph</text>		</g>
		<g id="shape71-4" v:mID="71" v:groupContext="shape" transform="translate(85.0394,-46.3465)">
			<title>Dot &#38; arrow</title>
			<v:userDefs>
				<v:ud v:nameU="ControlX" v:val="VT0(0.059055118110236):24"/>
				<v:ud v:nameU="Scale" v:val="VT0(1):26"/>
				<v:ud v:nameU="AntiScale" v:val="VT0(1):26"/>
				<v:ud v:nameU="visVersion" v:val="VT0(15):26"/>
			</v:userDefs>
			<path d="M-4.25 425.2 A4.25197 4.25197 -180 1 0 4.25 425.2 A4.25197 4.25197 -180 0 0 -4.25 425.2 ZM459.21 420.94 L459.21
						 429.45 L467.72 425.2 L459.21 420.94 Z" class="st3"/>
			<path d="M-4.25 425.2 A4.25197 4.25197 -180 1 0 4.25 425.2 A4.25197 4.25197 -180 0 0 -4.25 425.2" class="st4"/>
			<path d="M459.21 420.94 L459.21 429.45 L467.72 425.2 L459.21 420.94" class="st4"/>
			<path d="M4.25 425.2 L459.21 425.2" class="st4"/>
		</g>
		<g id="shape80-9" v:mID="80" v:groupContext="shape" transform="translate(-335.906,378.85) rotate(-90)">
			<title>Dot &#38; arrow.80</title>
			<v:userDefs>
				<v:ud v:nameU="ControlX" v:val="VT0(0.059055118110236):24"/>
				<v:ud v:nameU="Scale" v:val="VT0(1):26"/>
				<v:ud v:nameU="AntiScale" v:val="VT0(1):26"/>
				<v:ud v:nameU="visVersion" v:val="VT0(15):26"/>
			</v:userDefs>
			<path d="M-4.25 425.2 A4.25197 4.25197 -180 1 0 4.25 425.2 A4.25197 4.25197 -180 0 0 -4.25 425.2 ZM314.98 420.94 L314.98
						 429.45 L323.48 425.2 L314.98 420.94 Z" class="st3"/>
			<path d="M-4.25 425.2 A4.25197 4.25197 -180 1 0 4.25 425.2 A4.25197 4.25197 -180 0 0 -4.25 425.2" class="st4"/>
			<path d="M314.98 420.94 L314.98 429.45 L323.48 425.2 L314.98 420.94" class="st4"/>
			<path d="M4.25 425.2 L314.98 425.2" class="st4"/>
		</g>
		<g id="shape81-14" v:mID="81" v:groupContext="shape" transform="translate(262.205,-18)">
			<title>Sheet.81</title>
			<desc>Time</desc>
			<v:textBlock v:margins="rect(4,4,4,4)" v:tabSpace="42.5197"/>
			<v:textRect cx="49.6063" cy="411.024" width="99.22" height="28.3465"/>
			<rect x="0" y="396.85" width="99.2126" height="28.3465" class="st1"/>
			<text x="36.46" y="414.62" class="st5" v:langID="1033"><v:paragraph v:horizAlign="1"/><v:tabList/>Time</text>		</g>
		<g id="shape83-17" v:mID="83" v:groupContext="shape" transform="translate(-28.3465,-173.906)">
			<title>Sheet.83</title>
			<desc>Concurrent</desc>
			<v:textBlock v:margins="rect(4,4,4,4)" v:tabSpace="42.5197"/>
			<v:textRect cx="76" cy="415.197" width="152" height="20"/>
			<rect x="0" y="405.197" width="152" height="20" class="st1"/>
			<text x="46.86" y="418.8" class="st5" v:langID="1033"><v:paragraph v:horizAlign="1"/><v:tabList/>Concurrent</text>		</g>
		<g id="shape84-20" v:mID="84" v:groupContext="shape" transform="translate(89.2913,-103.039)">
			<title>Sheet.84</title>
			<path d="M0 425.2 L109.13 425.2 L109.13 368.5" class="st6"/>
		</g>
		<g id="shape85-23" v:mID="85" v:groupContext="shape" transform="translate(198.425,-46.3465)">
			<title>Sheet.85</title>
			<path d="M0 311.81 L141.73 311.81 L141.73 382.68 L255.12 382.68 L255.12 411.02 L311.81 411.02 L311.81 425.2"
					class="st6"/>
		</g>
	</g>
</svg>
