<?xml version="1.0" encoding="UTF-8" standalone="no"?>
<!DOCTYPE svg PUBLIC "-//W3C//DTD SVG 1.1//EN" "http://www.w3.org/Graphics/SVG/1.1/DTD/svg11.dtd">
<!-- Generated by Microsoft Visio, SVG Export RequestForTimeGraph.svg Page-5 -->
<svg xmlns="http://www.w3.org/2000/svg" xmlns:xlink="http://www.w3.org/1999/xlink" xmlns:ev="http://www.w3.org/2001/xml-events"
		xmlns:v="http://schemas.microsoft.com/visio/2003/SVGExtensions/" width="8.66142in" height="5.90551in"
		viewBox="0 0 623.622 425.197" xml:space="preserve" color-interpolation-filters="sRGB" class="st7">
	<v:documentProperties v:langID="8192" v:metric="true" v:viewMarkup="false">
		<v:userDefs>
			<v:ud v:nameU="msvNoAutoConnect" v:val="VT0(1):26"/>
		</v:userDefs>
	</v:documentProperties>

	<style type="text/css">
	<![CDATA[
		.st1 {fill:none;stroke:none;stroke-linecap:round;stroke-linejoin:round;stroke-width:0.75}
		.st2 {fill:#000000;font-family:Cambria;font-size:1.33333em}
		.st3 {fill:#000000}
		.st4 {stroke:#000000;stroke-linecap:round;stroke-linejoin:round;stroke-width:0.239976}
		.st5 {fill:#000000;font-family:Cambria;font-size:1.00001em}
		.st6 {fill:#000000;stroke:none;stroke-linecap:round;stroke-linejoin:round;stroke-width:0.24}
		.st7 {fill:none;fill-rule:evenodd;font-size:12px;overflow:visible;stroke-linecap:square;stroke-miterlimit:3}
	]]>
	</style>

	<g v:mID="7" v:index="5" v:groupContext="foregroundPage">
		<title>Page-5</title>
		<v:pageProperties v:drawingScale="0.0393701" v:pageScale="0.0393701" v:drawingUnits="24" v:shadowOffsetX="8.50394"
				v:shadowOffsetY="-8.50394"/>
		<v:layer v:name="Annotations" v:index="0"/>
		<g id="shape70-1" v:mID="70" v:groupContext="shape" v:layerMember="0" transform="translate(205.512,-386.504)">
			<title>12pt. text.70</title>
			<desc>RequestsForTimeGraph</desc>
			<v:userDefs>
				<v:ud v:nameU="AntiScale" v:val="VT0(1):26"/>
				<v:ud v:nameU="AutoWidth" v:val="VT0(0.39370078740157):24"/>
				<v:ud v:nameU="WidthIncrement" v:val="VT0(0.098425196850394):24"/>
				<v:ud v:nameU="visVersion" v:val="VT0(15):26"/>
				<v:ud v:nameU="AutoWidth" v:prompt="" v:val="VT0(2.3622047244094):24"/>
			</v:userDefs>
			<v:textBlock v:margins="rect(0,0,0,0)" v:tabSpace="42.5197"/>
			<v:textRect cx="85.0394" cy="418.11" width="170.08" height="14.1732"/>
			<rect x="0" y="411.024" width="170.079" height="14.1732" class="st1"/>
			<text x="3.56" y="422.91" class="st2" v:langID="3072"><v:paragraph v:horizAlign="1"/><v:tabList/>RequestsForTimeGraph</text>		</g>
		<g id="shape71-4" v:mID="71" v:groupContext="shape" transform="translate(63.7795,-46.3465)">
			<title>Dot &#38; arrow</title>
			<v:userDefs>
				<v:ud v:nameU="ControlX" v:val="VT0(0.059055118110236):24"/>
				<v:ud v:nameU="Scale" v:val="VT0(1):26"/>
				<v:ud v:nameU="AntiScale" v:val="VT0(1):26"/>
				<v:ud v:nameU="visVersion" v:val="VT0(15):26"/>
			</v:userDefs>
			<path d="M-4.25 425.2 A4.25197 4.25197 -180 1 0 4.25 425.2 A4.25197 4.25197 -180 0 0 -4.25 425.2 ZM459.21 420.94 L459.21
						 429.45 L467.72 425.2 L459.21 420.94 Z" class="st3"/>
			<path d="M-4.25 425.2 A4.25197 4.25197 -180 1 0 4.25 425.2 A4.25197 4.25197 -180 0 0 -4.25 425.2" class="st4"/>
			<path d="M459.21 420.94 L459.21 429.45 L467.72 425.2 L459.21 420.94" class="st4"/>
			<path d="M4.25 425.2 L459.21 425.2" class="st4"/>
		</g>
		<g id="shape80-9" v:mID="80" v:groupContext="shape" transform="translate(-357.165,378.85) rotate(-90)">
			<title>Dot &#38; arrow.80</title>
			<v:userDefs>
				<v:ud v:nameU="ControlX" v:val="VT0(0.059055118110236):24"/>
				<v:ud v:nameU="Scale" v:val="VT0(1):26"/>
				<v:ud v:nameU="AntiScale" v:val="VT0(1):26"/>
				<v:ud v:nameU="visVersion" v:val="VT0(15):26"/>
			</v:userDefs>
			<path d="M-4.25 425.2 A4.25197 4.25197 -180 1 0 4.25 425.2 A4.25197 4.25197 -180 0 0 -4.25 425.2 ZM314.98 420.94 L314.98
						 429.45 L323.48 425.2 L314.98 420.94 Z" class="st3"/>
			<path d="M-4.25 425.2 A4.25197 4.25197 -180 1 0 4.25 425.2 A4.25197 4.25197 -180 0 0 -4.25 425.2" class="st4"/>
			<path d="M314.98 420.94 L314.98 429.45 L323.48 425.2 L314.98 420.94" class="st4"/>
			<path d="M4.25 425.2 L314.98 425.2" class="st4"/>
		</g>
		<g id="shape81-14" v:mID="81" v:groupContext="shape" transform="translate(240.945,-18)">
			<title>Sheet.81</title>
			<desc>Time</desc>
			<v:textBlock v:margins="rect(4,4,4,4)" v:tabSpace="42.5197"/>
			<v:textRect cx="49.6063" cy="411.024" width="99.22" height="28.3465"/>
			<rect x="0" y="396.85" width="99.2126" height="28.3465" class="st1"/>
			<text x="36.46" y="414.62" class="st5" v:langID="1033"><v:paragraph v:horizAlign="1"/><v:tabList/>Time</text>		</g>
		<g id="shape83-17" v:mID="83" v:groupContext="shape" transform="translate(103.118,-325.984)">
			<title>Sheet.83</title>
			<desc>Hits</desc>
			<v:textBlock v:margins="rect(4,4,4,4)" v:tabSpace="42.5197"/>
			<v:textRect cx="76" cy="415.197" width="152" height="20"/>
			<rect x="0" y="405.197" width="152" height="20" class="st1"/>
			<text x="65.61" y="418.8" class="st5" v:langID="1033"><v:paragraph v:horizAlign="1"/><v:tabList/>Hits</text>		</g>
		<g id="shape85-20" v:mID="85" v:groupContext="shape" transform="translate(117.638,-171.071)">
			<title> Junction  dot</title>
			<v:userDefs>
				<v:ud v:nameU="Max" v:val="VT0(0.078740157480315):24"/>
				<v:ud v:nameU="CH1" v:val="VT0(5):26"/>
				<v:ud v:nameU="LimSize" v:val="VT0(0):26"/>
				<v:ud v:nameU="visVersion" v:val="VT0(15):26"/>
			</v:userDefs>
			<path d="M0 422.36 A2.83465 2.83465 0 0 1 5.67 422.36 A2.83465 2.83465 0 1 1 0 422.36 Z" class="st6"/>
		</g>
		<g id="shape86-22" v:mID="86" v:groupContext="shape" transform="translate(142.894,-145.814)">
			<title> Junction  dot.86</title>
			<v:userDefs>
				<v:ud v:nameU="Max" v:val="VT0(0.078740157480315):24"/>
				<v:ud v:nameU="CH1" v:val="VT0(5):26"/>
				<v:ud v:nameU="LimSize" v:val="VT0(0):26"/>
				<v:ud v:nameU="visVersion" v:val="VT0(15):26"/>
			</v:userDefs>
			<path d="M0 422.36 A2.83465 2.83465 0 0 1 5.67 422.36 A2.83465 2.83465 0 1 1 0 422.36 Z" class="st6"/>
		</g>
		<g id="shape87-24" v:mID="87" v:groupContext="shape" transform="translate(168.151,-120.557)">
			<title> Junction  dot.87</title>
			<v:userDefs>
				<v:ud v:nameU="Max" v:val="VT0(0.078740157480315):24"/>
				<v:ud v:nameU="CH1" v:val="VT0(5):26"/>
				<v:ud v:nameU="LimSize" v:val="VT0(0):26"/>
				<v:ud v:nameU="visVersion" v:val="VT0(15):26"/>
			</v:userDefs>
			<path d="M0 422.36 A2.83465 2.83465 0 0 1 5.67 422.36 A2.83465 2.83465 0 1 1 0 422.36 Z" class="st6"/>
		</g>
		<g id="shape88-26" v:mID="88" v:groupContext="shape" transform="translate(216.85,-185.244)">
			<title> Junction  dot.88</title>
			<v:userDefs>
				<v:ud v:nameU="Max" v:val="VT0(0.078740157480315):24"/>
				<v:ud v:nameU="CH1" v:val="VT0(5):26"/>
				<v:ud v:nameU="LimSize" v:val="VT0(0):26"/>
				<v:ud v:nameU="visVersion" v:val="VT0(15):26"/>
			</v:userDefs>
			<path d="M0 422.36 A2.83465 2.83465 0 0 1 5.67 422.36 A2.83465 2.83465 0 1 1 0 422.36 Z" class="st6"/>
		</g>
		<g id="shape89-28" v:mID="89" v:groupContext="shape" transform="translate(301.89,-199.417)">
			<title> Junction  dot.89</title>
			<v:userDefs>
				<v:ud v:nameU="Max" v:val="VT0(0.078740157480315):24"/>
				<v:ud v:nameU="CH1" v:val="VT0(5):26"/>
				<v:ud v:nameU="LimSize" v:val="VT0(0):26"/>
				<v:ud v:nameU="visVersion" v:val="VT0(15):26"/>
			</v:userDefs>
			<path d="M0 422.36 A2.83465 2.83465 0 0 1 5.67 422.36 A2.83465 2.83465 0 1 1 0 422.36 Z" class="st6"/>
		</g>
		<g id="shape90-30" v:mID="90" v:groupContext="shape" transform="translate(392.598,-256.11)">
			<title> Junction  dot.90</title>
			<v:userDefs>
				<v:ud v:nameU="Max" v:val="VT0(0.078740157480315):24"/>
				<v:ud v:nameU="CH1" v:val="VT0(5):26"/>
				<v:ud v:nameU="LimSize" v:val="VT0(0):26"/>
				<v:ud v:nameU="visVersion" v:val="VT0(15):26"/>
			</v:userDefs>
			<path d="M0 422.36 A2.83465 2.83465 0 0 1 5.67 422.36 A2.83465 2.83465 0 1 1 0 422.36 Z" class="st6"/>
		</g>
		<g id="shape91-32" v:mID="91" v:groupContext="shape" transform="translate(453.788,-194.921)">
			<title> Junction  dot.91</title>
			<v:userDefs>
				<v:ud v:nameU="Max" v:val="VT0(0.078740157480315):24"/>
				<v:ud v:nameU="CH1" v:val="VT0(5):26"/>
				<v:ud v:nameU="LimSize" v:val="VT0(0):26"/>
				<v:ud v:nameU="visVersion" v:val="VT0(15):26"/>
			</v:userDefs>
			<path d="M0 422.36 A2.83465 2.83465 0 0 1 5.67 422.36 A2.83465 2.83465 0 1 1 0 422.36 Z" class="st6"/>
		</g>
		<g id="shape92-34" v:mID="92" v:groupContext="shape" transform="translate(487.51,-161.198)">
			<title> Junction  dot.92</title>
			<v:userDefs>
				<v:ud v:nameU="Max" v:val="VT0(0.078740157480315):24"/>
				<v:ud v:nameU="CH1" v:val="VT0(5):26"/>
				<v:ud v:nameU="LimSize" v:val="VT0(0):26"/>
				<v:ud v:nameU="visVersion" v:val="VT0(15):26"/>
			</v:userDefs>
			<path d="M0 422.36 A2.83465 2.83465 0 0 1 5.67 422.36 A2.83465 2.83465 0 1 1 0 422.36 Z" class="st6"/>
		</g>
	</g>
</svg>
